<?xml version="1.0" encoding="UTF-8" standalone="no"?>
<!DOCTYPE svg PUBLIC "-//W3C//DTD SVG 1.1//EN" "http://www.w3.org/Graphics/SVG/1.1/DTD/svg11.dtd">
<svg width="100%" height="100%" viewBox="0 0 512 512" version="1.1" xmlns="http://www.w3.org/2000/svg" xmlns:xlink="http://www.w3.org/1999/xlink" xml:space="preserve" xmlns:serif="http://www.serif.com/" style="fill-rule:evenodd;clip-rule:evenodd;stroke-linecap:round;stroke-linejoin:round;stroke-miterlimit:1.5;">
    <rect x="0" y="0" width="512" height="512"/>
    <rect x="12.198" y="12.198" width="487.604" height="487.604" style="fill:white;"/>
    <g transform="matrix(1.0939,0,0,1.15753,-135.102,-21.5889)">
        <text x="161.017px" y="426.125px" style="font-family:'ArialMT', 'Arial', sans-serif;font-size:150px;">mimik</text>
    </g>
    <g transform="matrix(1,0,0,1,192.62,0)">
        <circle cx="168.823" cy="176.305" r="101.164" style="fill:white;stroke:black;stroke-width:13.02px;"/>
    </g>
    <path d="M206.933,311.949L206.933,212.412L345.128,212.412L345.45,212.413C372.77,212.586 394.897,234.819 394.897,262.18C394.897,289.649 372.596,311.949 345.128,311.949L206.933,311.949Z" style="fill:white;stroke:black;stroke-width:13.02px;"/>
    <g transform="matrix(1.06436,0,0,0.527708,-8.01781,125.732)">
        <rect x="124.584" y="134.668" width="131.416" height="258.277" style="fill:white;"/>
    </g>
    <g transform="matrix(1,0,0,1,1.30114,0)">
        <circle cx="168.823" cy="176.305" r="101.164" style="fill:white;stroke:black;stroke-width:13.02px;"/>
    </g>
    <circle cx="181.184" cy="176.305" r="20.493"/>
    <g transform="matrix(1,0,0,1,159.767,0)">
        <circle cx="181.184" cy="176.305" r="20.493"/>
    </g>
</svg>
